<?xml version="1.0" encoding="utf-8"?>
<!-- Generator: Adobe Illustrator 23.1.0, SVG Export Plug-In . SVG Version: 6.00 Build 0)  -->
<svg version="1.1" id="Layer_1" xmlns="http://www.w3.org/2000/svg" xmlns:xlink="http://www.w3.org/1999/xlink" x="0px" y="0px"
	 viewBox="0 0 1920 477" style="enable-background:new 0 0 1920 477;" xml:space="preserve">
<style type="text/css">
	.st0{fill:#EBEEF4;}
	.st1{opacity:0.17;}
	.st2{fill:#242424;}
</style>
<g>
	<path class="st0" d="M1920,53.6v369.8c0,29.6-31.7,53.6-70.8,53.6H70.8C31.7,477,0,453,0,423.4V53.6C0,24,31.7,0,70.8,0h1778.4
		c1.3,0,2.6,0,3.9,0.1c0.2,0,0.5,0,0.7,0c3.4,0.2,6.7,0.5,9.9,1C1895.9,6.2,1920,27.8,1920,53.6z"/>
</g>
<g class="st1">
	<path class="st2" d="M325.2,154.9c-4.5,6.2-9.4,12-14,18.1c-4.5,6.1-9,12.2-13.2,18.5c-9.1,13.4-18.6,26.5-27.7,39.9
		c-6,8.7-11.7,17.5-17.4,26.4c-2.5,3.8-5,7.6-7.4,11.4c-0.2,0.4-0.5,0.8-0.7,1.1c-4.1,6.6-8.2,13.1-12.3,19.7
		c-0.2,0.3-0.4,0.6-0.6,0.9c0,0,0,0,0,0c-0.8,1.3-1.6,2.6-2.4,3.9c0,0.1-0.1,0.1-0.1,0.2c-0.2,0.3-0.4,0.6-0.6,0.9
		c-0.3,0.5-0.7,1.1-1,1.6c-0.2,0.4-0.4,0.7-0.6,1c-2.1,3.4-4.3,6.8-6.4,10.2c-2.4,3.7-4.7,7.4-6.9,11.2v0c-1.3,2.3-2.6,4.6-3.8,6.9
		c-1,2-2,3.9-3,5.9c-2.6,5.2-5.2,10.4-7.7,15.6c-0.8,1.6-1.6,3.3-2.3,4.9c-3,6.5-6,13-8.8,19.6c-2.6,5.9-4.6,12.1-6.7,18.2
		c-0.1,0.3-0.2,0.6-0.3,0.9c-1.1,3.8-2.1,7.6-3.1,11.4c-1.3,4.7-2.4,9.3-3.6,14c-1.2,4.9-2.4,9.7-3.6,14.6c-1,4.1-1.8,8.2-2.6,12.3
		c-0.5,3.5-1.2,7-1.6,10.5c-0.4,4.1-0.8,8.1-1.2,12.2c-0.2,3.3-0.4,6.5-0.5,9.8h-13.4c0.1-2.8,0.2-5.5,0.3-8.3
		c0.2-7.7,0.9-15.3,1.7-22.8c0.9-7.9,2.6-15.8,4.2-23.6c1.2-5.7,2.5-11.4,3.9-17c0.5-2,0.9-3.9,1.4-5.8c0.9-3.6,1.8-7.2,2.9-10.8
		c3.2-10.9,7.2-21.5,11.9-31.8c3.9-8.6,7.9-17.1,12-25.5c1.5-3.1,3.1-6.1,4.7-9.2c0.3-0.5,0.6-1,0.8-1.5c5.5-10.1,11.7-19.7,18-29.3
		c0.1-0.1,0.1-0.1,0.2-0.2c0.2-0.4,0.5-0.8,0.7-1.1c0,0,0-0.1,0.1-0.1c0.2-0.3,0.4-0.5,0.5-0.8c0.5-0.7,0.9-1.5,1.4-2.2
		c0.2-0.4,0.5-0.8,0.8-1.2c-0.1,0.2-0.2,0.3-0.3,0.5c0.4-0.6,0.8-1.3,1.2-1.9c0.3-0.4,0.5-0.8,0.8-1.2c0.1-0.2,0.2-0.3,0.3-0.5
		c0.3-0.6,0.8-1.2,1.2-1.8c-0.2,0.3-0.4,0.6-0.5,0.9c2-3.1,4-6.3,6-9.4c0.1-0.2,0.2-0.4,0.3-0.6c1.6-2.5,3.3-5.1,4.9-7.6
		c0.7-1,1.3-2.1,2-3.1c0.4-0.6,0.8-1.3,1.2-1.9c3.5-5.3,7.1-10.5,10.6-15.8c8.7-13,17.5-26,26.9-38.6c7.3-9.9,14.4-20,21.6-29.9
		c7-9.7,14.6-18.9,22.7-27.6c2.1-2.2,5.6-2.5,8-0.7C326.5,148.4,327.1,152.2,325.2,154.9z"/>
	<path class="st2" d="M343.5,138.8c-0.8-4.1-1.4-8.8-4-12.1c-1-1.3-2.1-2.3-3.6-3c-1.4-0.8-2.9-0.9-4.5-1c-2.3,0-4.7,0.8-6.8,1.5
		c-1.1,0.3-2.1,0.8-3.1,1.2c-1.6,0.6-3.1,1.4-4.6,2.1c-6.9,3.4-13.3,7.7-19.9,11.5c-6.3,3.7-12.7,7.3-19,11.1
		c-6.7,4.1-13.6,7.8-20.5,11.5c-6.6,3.5-12.6,7.8-18.7,12c-6.4,4.5-13,8.7-19.3,13.4c-3.3,2.4-6.4,5-9.6,7.6
		c-2.8,2.3-5.4,4.8-8.1,7.2c-2.8,2.5-5.5,5.1-8.2,7.6c-2.8,2.6-5.6,5.2-8.3,7.9c-4.9,4.7-9.7,9.5-13.9,14.8c-3.5,4.4-6.5,9-9.6,13.6
		c-1,1.6-1.9,3.3-2.9,5c-1.2,2.2-2.5,4.3-3.5,6.5c-4.7,9.7-8.1,19.7-10.2,30.3c-1.2,6.1-1.8,12.2-2.4,18.3c-0.4,4-0.5,8-0.7,12
		c-0.8,17.1,2.1,34.1,7.3,50.4c2.5,7.7,5.1,15.3,7.8,23c1.6,4.6,3,9.2,4.4,13.9c0.9,3,1.7,6,2.5,9c0.7,2.4,3.3,3.8,5.7,3.1
		c2.4-0.7,3.8-3.3,3.2-5.7c-0.8-2.6-1.5-5.2-2.3-7.8c1.5,0.9,3.4,1.1,5.2,0.4c0.3-0.1,0.6-0.2,0.9-0.3c0.4-0.1,0.8-0.3,1.2-0.4
		c0.7-0.2,1.5-0.4,2.2-0.6c3.5-0.7,7.1-1.1,10.6-1.9c3-0.7,5.9-1.4,8.8-2.1c0.1,0,0.2,0,0.2,0c0,0,0,0,0,0c3.2-0.7,6.5-1.3,9.7-2.1
		c3.3-0.8,6.6-1.8,9.9-2.7c6.3-1.8,12.6-3.5,18.7-5.7c3.4-1.2,6.8-2.4,10.1-3.9c3.2-1.5,6.4-3.1,9.4-4.9c3-1.8,5.9-3.6,8.8-5.5
		c2.8-1.9,5.8-3.8,8.4-6c2.9-2.5,5.7-5,8.3-7.8c2.7-3,5.4-5.9,7.9-9c2.4-2.9,4.9-5.8,7.1-8.9c1.3-1.8,2.7-3.7,3.9-5.6
		c1-1.7,2.1-3.5,3.1-5.2c1-1.7,1.8-3.6,2.7-5.4c0.9-1.7,1.6-3.5,2.4-5.3c1.5-3.3,2.9-6.6,4.2-10c1.4-3.5,2.8-6.9,4-10.4
		c1.4-4.2,2.7-8.3,4-12.5c2.2-7.3,4.1-14.7,6.2-22.1c2-7,3.9-14,5.5-21c3.5-15.1,6.8-30.3,8-45.8c0.6-8.1,1.1-16.2,1.6-24.4
		C344.6,162.9,345.9,150.7,343.5,138.8z M319,254.8c-1.4,5.6-3.1,11.1-4.7,16.6c-0.2,0.7-0.4,1.4-0.6,2.1c-1.6,5.4-3.2,10.9-5,16.3
		c-0.5,1.6-1.1,3.2-1.7,4.8c-1.3,3.5-2.8,6.9-4.2,10.3c-2.1,4.9-4.3,9.7-6.5,14.6c-0.1,0.3-0.2,0.5-0.3,0.7c0-0.1,0.1-0.2,0.1-0.3
		c-0.9,1.7-1.7,3.5-2.7,5.1c-1,1.5-1.9,3.1-2.9,4.7c-4.4,6-9,11.8-13.7,17.5c-1.7,2-3.4,4-5.2,5.9c-1.8,1.9-3.6,3.6-5.4,5.4
		c-3.6,2.9-7.3,5.7-11,8.3c-2.1,1.4-4.1,2.8-6.2,4.1c-2.1,1.3-4.2,2.4-6.3,3.6c-4,1.8-8,3.5-12.1,5c0,0,0,0,0,0
		c-7.8,2.6-15.6,5.1-23.6,7c-5.2,1-10.4,1.9-15.5,3c0.1,0,0.1,0,0.2,0c-0.2,0-0.4,0.1-0.6,0.1c-0.1,0-0.1,0-0.2,0
		c-2.7,0.5-5.3,1-8,1.5c-0.5,0.1-1,0.2-1.5,0.2c-1.2,0.2-2.4,0.4-3.6,0.7c-2.2,0.5-4.3,1.3-6.4,2.1c-1.3,0.5-2.3,1.6-2.8,2.8
		c-0.9-2.8-1.8-5.5-2.7-8.3c-0.4-1.3-0.9-2.6-1.3-4c-3.3-9.9-6.4-19.8-8.7-30c0.1,0.2,0.1,0.5,0.2,0.7c-1.1-5.3-2-10.7-2.4-16.2v0
		c0,0,0-0.1,0-0.1c-0.4-6.1-0.4-12.3-0.1-18.4c0.3-3.6,0.4-7.3,0.9-10.9c0.7-5.4,1.3-10.7,2.3-16c1-4.8,2.2-9.6,3.6-14.3
		c1.6-4.8,3.5-9.5,5.6-14v0c1.3-2.5,2.6-5,4-7.5c0,0,0,0,0,0c0,0,0,0,0,0c0.9-1.6,1.8-3.1,2.7-4.7c1.3-2,2.6-3.9,3.9-5.9
		c2-3,4.2-5.9,6.5-8.8l0,0c0,0,0-0.1,0.1-0.1c4.7-5.5,9.9-10.6,15.2-15.7c3.8-3.7,7.7-7.3,11.5-11c3.2-2.9,6.3-5.8,9.7-8.6
		c0,0,0.1-0.1,0.1-0.1c3.4-2.8,6.9-5.6,10.4-8.3c0,0,0.1,0,0.1-0.1c0,0,0,0,0,0c0.2-0.2,0.5-0.3,0.7-0.5c5.9-4.1,11.8-8.2,17.6-12.3
		c-0.1,0.1-0.2,0.2-0.3,0.2c3.3-2.3,6.6-4.6,9.9-6.8c3.1-2,6.3-3.7,9.5-5.4c3.3-1.8,6.5-3.6,9.7-5.4c2.9-1.7,5.7-3.5,8.5-5.3
		c6.3-3.8,12.7-7.4,18.9-11.2c6.2-3.8,12.3-7.8,18.7-11.2c1.9-0.9,3.8-1.8,5.7-2.6c0.7-0.3,1.5-0.5,2.2-0.7c0,0.1,0,0.1,0.1,0.2
		c0.4,1.2,0.7,2.3,1,3.6c0.5,2.6,0.9,5.3,1.2,7.9c0.2,2.9,0.3,5.9,0.2,8.8c-0.3,5.9-1,11.7-1.5,17.6c-0.5,5.7-1.1,11.4-1.6,17.1
		c-0.4,4.6-0.8,9.1-1.3,13.7c-0.3,2.4-0.5,4.9-0.9,7.3c-0.4,2.7-0.8,5.3-1.2,8c-0.3,1.5-0.6,3-0.9,4.5c-0.9,4.7-1.9,9.4-3,14
		C322.1,242.5,320.6,248.6,319,254.8z"/>
	<path class="st2" d="M226.5,274.9c-2.2-5.9-3.3-12.1-4.5-18.3c-1.2-5.9-2.1-11.9-2.6-17.9c-0.4-6-0.8-12.1-0.9-18.1
		c-0.1-5.7,0.2-11.3,1.1-16.9c0.6-4,1.4-8,2.7-11.8c1-3.3,2.3-6.4,4.5-9.2c1-1.3,2.4-2.1,4.1-2.1c1.8,0,3.5,0.9,4.5,2.5
		c1.8,3,0.2,6.7-2.9,7.6c-0.1,0.2-0.2,0.4-0.3,0.6c0,0,0-0.1,0-0.1c0,0.1-0.1,0.1-0.1,0.2c-0.1,0.1-0.1,0.2-0.2,0.3
		c0-0.1,0.1-0.1,0.1-0.2c-0.6,1.3-1.1,2.7-1.5,4c-0.7,2.3-1.2,4.6-1.7,7c0-0.1,0-0.2,0.1-0.2c-0.5,2.9-0.9,5.7-1.1,8.6
		c0-0.1,0-0.2,0-0.3c0,0.1,0,0.2,0,0.3c0,0.1,0,0.2,0,0.3c0-0.1,0-0.1,0-0.2c-0.2,4.4,0.1,8.8,0.3,13.2c0.4,4.3,0.9,8.5,1.4,12.8
		c0.5,3.7,1.3,7.3,2,10.9c0,0,0-0.1,0-0.1c0,0.1,0,0.1,0,0.2c0,0.2,0.1,0.4,0.1,0.5c0-0.1,0-0.2,0-0.3c0.9,3.8,1.8,7.6,2.6,11.4
		c0.9,4,1.9,8.1,2.5,12.2c0.4,2.6-1.3,5.2-3.8,5.9C230.4,278.6,227.4,277.4,226.5,274.9z"/>
	<path class="st2" d="M192.7,336.8c-1.7-2.7-3-5.7-4.5-8.6c-1.4-2.8-2.9-5.7-4.3-8.5c-3-6-5.5-12.3-7.7-18.7c-1-3-2-6-2.7-9.1
		c-0.9-3.8-1.7-7.6-2.4-11.4c-1.7-8.6-1.7-17.5-0.9-26.2c0.4-4.3,1.2-8.5,2.1-12.7c1-4.2,2.4-8.4,4.7-12.1c1.4-2.2,4.1-3.2,6.5-1.9
		c2.6,1.4,3.2,4.7,1.6,7c-0.1,0.2-0.3,0.4-0.4,0.7c-0.5,0.9-1,1.7-1.4,2.6c-0.4,1-0.8,2-1.2,3.1c-0.8,2.5-1.4,5-1.9,7.6
		c0-0.1,0-0.2,0-0.2c-0.6,3.5-1.1,7-1.3,10.6c-0.2,3.8-0.2,7.5,0.1,11.3c0,0,0,0,0,0c0.3,2.9,0.7,5.8,1.3,8.7
		c-0.1-0.2-0.1-0.4-0.1-0.6c0.6,2.8,1.2,5.6,2,8.3c0.7,2.8,1.6,5.6,2.4,8.3c-0.1-0.2-0.2-0.4-0.2-0.6c2.1,5.7,4.4,11.4,6.8,16.9
		c1.2,2.6,2.5,5.3,3.7,7.9c1.3,2.8,2.3,5.6,3.4,8.4c-0.1-0.2-0.1-0.4-0.2-0.6c0.3,0.8,0.5,1.5,0.8,2.2c0.1,0.2,0.1,0.4,0.2,0.5
		c0.4,1.2,0.8,2.3,1.2,3.5c0.7,1.9-0.5,4.1-2.2,4.9c-0.2,0.1-0.3,0.1-0.5,0.2C195.6,339.1,193.7,338.4,192.7,336.8z"/>
	<path class="st2" d="M248.7,269.4c-5.8,1.5-11.7,3.2-17.6,4.4c-2.5,0.6-5.1-0.8-5.8-3.4c-0.7-2.6,0.9-5.1,3.5-5.8
		c7.9-2.3,15.9-4.4,23.8-6.6c7.8-2.2,15.6-4.5,23.4-6.7c0,0,0,0-0.1,0c2.8-0.9,5.6-1.9,8.3-3c3-1.2,6-2.5,9-3.9c0,0,0,0,0,0
		c3.3-1.7,6.6-3.3,9.8-5.1c1.7-1,3.5-1.9,5.2-3c0.2-0.1,0.3-0.2,0.5-0.3c0,0,0,0,0.1,0c0.2-0.1,0.4-0.2,0.6-0.3
		c1.3-0.8,2.7-1.7,4-2.5c1.8-1.3,3.6-2.6,5.4-3.9c2.7-2.3,5.4-4.5,7.8-7.1c1.6-1.7,4.6-1.5,6.2,0.1c1.7,1.7,1.6,4.5-0.2,6.2
		c-2.6,2.5-5.4,4.8-8.2,7.1c-1,0.8-2,1.5-3.1,2.3c-1.3,0.9-2.5,1.9-3.8,2.7c0.2-0.1,0.3-0.2,0.5-0.3c-0.9,0.5-1.7,1.1-2.6,1.6
		c-0.2,0.1-0.3,0.2-0.5,0.3c-0.2,0.1-0.3,0.2-0.4,0.3c-0.3,0.2-0.6,0.4-0.9,0.5c-0.1,0.1-0.1,0.1-0.2,0.1c-3.3,2.1-6.8,4-10.2,6
		c-3.4,1.9-6.8,3.7-10.3,5.4c-6.8,3.4-14,5.9-21.3,8.1c-4.8,1.5-9.7,2.9-14.5,4.4C254.3,267.9,251.5,268.6,248.7,269.4z"/>
	<path class="st2" d="M235.7,326.9c-3.3,1-6.7,1.8-10,2.6c-3.2,0.7-6.5,1.2-9.8,1.8c0.2,0,0.3-0.1,0.5-0.1c-3.7,0.7-7.3,1.5-11,1.9
		c-2.5,0.2-4.9-1.3-5.5-3.8c-0.6-2.3,0.7-5.1,3-5.9c7.9-2.8,16.3-4.5,24.3-6.9c10-3.4,19.9-7.1,29.8-10.6
		c9.7-3.4,19.2-7.3,28.5-11.6c-0.2,0.1-0.5,0.2-0.7,0.3c1.9-1,3.8-2,5.8-3c1.8-0.9,3.5-2,5.3-3.1c3.4-2.2,6.7-4.3,9.8-6.8
		c1.6-1.4,3.1-2.7,4.5-4.3c0.9-1,1.8-2.1,2.6-3.2c1.7-2.3,4.7-3.2,7.3-1.7c2.8,1.7,3.5,5.5,1.4,8c-6.3,7.8-14.2,13.9-22.5,19.4
		c-3,2-6.1,3.9-9.4,5.6c-3.8,2-7.7,3.9-11.6,5.7c-7,3.3-14.2,5.7-21.4,8.2c-3.5,1.2-7,2.4-10.5,3.6c-3.3,1.1-6.6,2.3-9.9,3.3
		C236,326.8,235.9,326.8,235.7,326.9z"/>
	<path class="st2" d="M135.5,377.7c-1-4.3-2-8.6-2.9-12.9c-0.9-4-2.1-8.1-3.2-12.1c-1.9-7.2-4.2-14.3-6.7-21.3c-0.7-2-1.5-4-2.2-6
		c-0.5-1.4-1.2-2.8-1.8-4.1c-1.6-3.5-3-7.1-4.8-10.5c-1.8-3.5-3.5-7.1-5.5-10.5c-2.2-3.7-4.4-7.4-6.6-11.1c-1-1.7-2.2-3.3-3.3-5
		c-1.4-2-2.8-4.1-4.2-6.1c-2.2-3.2-4.7-6.1-7-9.1c-2.4-3-5-5.9-7.7-8.7c-1.1-1.3-2.3-2.7-3.6-3.9c-1.3-1.3-2.7-2.5-4-3.8
		c-2.7-2.6-5.4-5.2-8.2-7.7c-2.2-1.8-4.3-3.6-6.5-5.4c-1-0.8-1.9-1.7-2.9-2.4c-3.6-2.6-7.2-5.2-10.7-7.9c-3-2.2-6.3-4.2-9.5-6.2
		c0,0,0,0,0,0c-0.3-0.2-0.6-0.4-1-0.6c-0.1-0.1-0.2-0.1-0.3-0.2c-5.9-3.9-12.2-7.3-18.4-10.7c-4.8-2.6-9.6-5.1-14.5-7.5v16.4
		c0.1,0.1,0.2,0.1,0.3,0.2c5.9,3.2,11.7,6.4,17.5,9.8c2.5,1.5,5.1,3,7.6,4.7c2.9,2,5.9,3.9,8.9,5.8c0,0,0.1,0,0.1,0.1
		c1.7,1.3,3.4,2.5,5.1,3.8c1.8,1.4,3.8,2.7,5.6,4.1c2.2,1.9,4.4,3.7,6.6,5.6c0,0,0,0,0,0c1.3,1.1,2.6,2.2,4,3.3
		c3.2,3,6.3,6.1,9.5,9.1c1.6,1.5,3,3.3,4.5,5c1.4,1.5,2.7,3,4.1,4.5c1.4,1.8,2.8,3.6,4.2,5.4c1.2,1.5,2.5,3,3.6,4.6
		c1,1.5,2.1,3,3.1,4.5c0,0,0,0,0,0c0,0,0,0,0,0l0,0c1.4,2.1,2.8,4.1,4.2,6.2c1.1,1.9,2.3,3.8,3.5,5.7c1.1,1.9,2.3,3.6,3.4,5.5
		c0.3,0.6,0.7,1.2,1,1.8c0,0,0,0,0,0c1.7,3.3,3.5,6.5,5.3,9.8c1.5,3.2,2.9,6.3,4.4,9.5c1.2,2.6,2.2,5.4,3.2,8.1c1,2.6,2,5.2,2.9,7.8
		c1.1,3.2,2.1,6.4,3.1,9.6c3.4,11.4,6.9,22.9,9.1,34.6c0.9,5,1.5,10.1,1.7,15.1v-0.2c0,0.1,0,0.3,0,0.4c0-0.1,0-0.2,0-0.3
		c0.2,5.3,0.1,10.5-0.3,15.8c-0.1,0.8-0.2,1.5-0.3,2.3c-0.3,2.1-0.6,4.2-1,6.2c-1.9-0.6-3.8-1.4-5.7-2c0.1,0,0.3,0.1,0.4,0.1
		c-2.3-0.9-4.5-1.9-6.8-2.7c-0.5-0.2-1-0.4-1.5-0.5c-2.9-0.9-5.8-1.9-8.8-2.8c-4.7-1.8-9.3-3.7-14-5.5c-4.5-1.8-9-3.3-13.6-5
		c-0.1,0-0.2-0.1-0.3-0.1c0,0,0,0,0,0c-5.9-2.3-11.6-4.6-17.4-7c-2.8-1.2-5.6-2.3-8.4-3.6c-2.6-1.2-5.2-2.5-7.7-3.8
		c-7.2-4.1-14.2-8.4-21-13.1c0,0,0,0,0,0c-1.4-1-2.8-2-4.1-3.1c-1.5-1.3-2.9-2.5-4.3-3.7c-2.4-2.3-4.8-4.6-7-7.1
		c-0.2-0.2-0.4-0.4-0.6-0.6c-1.3-1.5-2.7-3-4-4.5v20c1.7,1.6,3.5,3.2,5.4,4.8c5.7,4.9,12,9.1,18.4,13c3.5,2.1,7.1,4.2,10.7,6.3
		c3.4,1.9,7,3.5,10.5,5.1c6.9,3.1,13.9,5.8,20.9,8.5c6.8,2.5,13.6,4.8,20.4,7.3c0.1,0,0.3,0.1,0.4,0.2c3.6,1.4,7.1,2.7,10.7,4
		c3.3,1.2,6.8,2.1,10.2,3.2c3.3,1,6.4,2.4,9.7,3.3c1.5,0.5,3.1,0.8,4.6,1.2c0.1,0,0.3,0.1,0.4,0.1c0.5,1.1,1.3,2,2.3,2.7
		c1.5,0.9,3.3,1.1,4.9,0.6c1.9-0.5,3.5-1.9,4-4c0.1-0.5,0.3-1.1,0.4-1.7c0.5-2,1.2-4,1.6-6c0.6-2.5,1.1-5,1.5-7.6
		c0.8-5.4,1.3-10.9,1.4-16.3C138.5,398.1,137.8,387.7,135.5,377.7z"/>
	<path class="st2" d="M151.3,477h-11.3c-1-2.3-2.1-4.6-3.2-6.9c-4.7-9.5-9.5-18.9-14.4-28.3c-0.2-0.4-0.5-0.8-0.7-1.3
		c-2.2-4.2-4.6-8.3-6.9-12.4c-0.7-1.3-1.5-2.6-2.2-3.8c-1.7-2.8-3.4-5.6-5.1-8.4c-5.3-8.2-10.7-16.3-16.1-24.4
		c-2.3-3.5-4.6-7-7-10.4c-1-1.4-1.9-2.8-2.9-4.3c-8.9-13.2-18-26.4-27.7-39c-1.1-1.4-2.1-2.8-3.2-4.2c-3.6-4.7-7.4-9.2-11.1-13.8
		c-2.3-2.8-4.6-5.6-6.8-8.3c0.2,0.2,0.4,0.5,0.5,0.7c-10.3-12.1-20.6-24-31.2-35.8c-0.7-0.8-1.5-1.6-2.2-2.4v-19.5
		c2.4,2.6,4.8,5.2,7.1,7.8c10.3,11.2,20.5,22.6,30.5,34.2c3.4,3.9,6.7,7.8,10,11.8c0,0,0,0,0,0c1.7,2,3.3,3.9,4.9,5.9
		c2.9,3.5,5.7,7,8.6,10.5c0.7,0.8,1.4,1.7,2,2.6c1.9,2.4,3.7,4.9,5.5,7.3c4.3,5.5,8.3,11.2,12.2,17c3.9,5.7,7.8,11.4,11.6,17.2
		c1,1.5,2,3,3,4.5c0.8,1.2,1.6,2.5,2.4,3.7c3.3,5.1,6.6,10.2,9.8,15.3c4,6.3,8.1,12.7,11.8,19.2c1.9,3.4,4,6.8,5.8,10.3
		c0.2,0.4,0.4,0.8,0.6,1.1c1.8,3.5,3.7,7,5.5,10.5c0.9,1.7,1.7,3.4,2.5,5.1c1,2.1,2,4.2,3,6.2c1.7,3.6,3.3,7.2,5,10.7
		c3.1,6.7,6,13.4,8.9,20.2C150.9,476,151.1,476.5,151.3,477z"/>
	<path class="st2" d="M58.3,330.9c-0.5,1.6-1.8,2.8-3.3,3.2c-0.3,0.1-0.6,0.1-0.9,0.2c-0.6,0-1.2,0-1.8-0.2c-0.5-0.1-1-0.3-1.5-0.4
		c-6.3-1.8-12.5-3.5-18.9-5c-2.9-0.6-5.8-1.1-8.7-1.8c-3.3-0.8-6.4-1.7-9.6-2.7c-4.5-1.4-9-2.8-13.6-4.2V310
		c7.6,1.9,15.1,4.1,22.6,6c5.1,1.1,10.3,1.9,15.3,3.3c0.6,0.2,1.1,0.3,1.7,0.5c3.3,1,6.6,2,9.8,3.1c1.8,0.6,3.7,1.3,5.5,1.9
		C57.5,325.8,59,328.2,58.3,330.9z"/>
	<path class="st2" d="M104.1,392.1c-0.4,1.2-1.4,2.2-2.5,2.5c-0.6,0.2-1.3,0.2-2,0c-1.6-0.6-3.2-1.2-4.8-1.8
		c-1.1-0.4-2.2-0.8-3.3-1.2c-1.6-0.5-3.2-1.1-4.8-1.5c-3.3-0.9-6.7-1.6-10-2.5c-0.1,0-0.1,0-0.2,0c-3.5-0.8-7.1-1.3-10.7-1.8
		c-3.6-0.5-7.2-1.2-10.7-1.9c-7.6-1.6-15.1-3.3-22.5-5.5c-1.9-0.6-3.9-1.1-5.8-1.7c-2.2-0.6-4.3-1.4-6.5-2.1
		c-3.8-1.3-7.5-2.7-11.2-4.1c-1.7-0.7-3.4-1.4-5.1-2.1c-1.3-0.6-2.6-1.1-4-1.7V359c1,0.4,1.9,0.8,2.8,1.2c2.6,1.1,5.1,2.3,7.7,3.3
		c3.1,1.2,6.1,2.3,9.2,3.5c0,0,0,0,0,0c0,0,0,0,0,0c4,1.3,8.1,2.6,12.2,3.7c1.9,0.5,3.9,1.1,5.8,1.6c2.2,0.5,4.4,1,6.7,1.6
		c5,1,10.1,2,15.1,2.8c5,0.8,10.1,1.3,15.2,2.2c2.3,0.4,4.6,1,6.8,1.6c1,0.3,1.9,0.5,2.9,0.8c1.5,0.4,3.1,0.8,4.6,1.3
		c1.1,0.3,2.2,0.7,3.2,1.1c1.2,0.5,2.5,1,3.7,1.4c0.5,0.2,1,0.4,1.5,0.6v0c1.5,0.7,3,1.4,4.5,2.1
		C103.7,388.6,104.7,390.3,104.1,392.1z"/>
	<path class="st2" d="M93.4,388.9C93.4,388.8,93.4,388.8,93.4,388.9c-0.2-0.8-0.4-1.4-0.5-2.1c-0.2-0.8-0.3-1.5-0.3-2.3
		c-0.3-2.2-0.2-4.4-0.1-6.6c0-2,0.1-3.9,0.1-5.8c0-2,0-4.1,0-6.1c-0.1-2.2-0.2-4.4-0.3-6.6c0,0,0,0,0,0c-0.7-10.1-1.6-20.1-2.5-30.1
		c-0.5-4.6-1-9.3-1.5-13.9c-0.7-6-0.9-12.1-1.9-18.1c0,0.1,0,0.2,0.1,0.3c0-0.2-0.1-0.4-0.1-0.6c0,0,0,0,0,0c0,0,0,0,0,0
		c-0.4-2.1-0.9-4.1-1.5-6.2c0,0.1,0.1,0.3,0.1,0.4c-0.1-0.2-0.1-0.3-0.2-0.5c0,0,0-0.1,0-0.1c0,0,0,0.1,0,0.1
		c-1-2.9-2.2-5.6-3.4-8.4c0,0,0.1,0.1,0.1,0.1c-1.2-2.5-2.4-5.1-3.6-7.6c-1-2,0.1-4.5,2-5.5c2.1-1.2,4.8-0.4,6,1.7
		c1.3,2.3,2.5,4.6,3.8,6.9c2,3.7,3.5,7.5,4.7,11.5c1.9,6.1,2.2,12.6,2.5,19c0.4,7.8,1,15.6,1.4,23.5c0.4,7.8,0.6,15.6,0.7,23.4
		c0,3.7,0.1,7.5-0.2,11.2c-0.3,4.2-0.6,8.3-0.9,12.5c-0.1,1.7-0.2,3.4-0.2,5.1c0,0.6,0.1,1.2,0.2,1.8c0-0.1,0-0.2,0-0.3
		c0.1,0.7,0.3,1.5,0.5,2.1c0.1,0.3,0.2,0.6,0.2,0.8c0,0.4,0,0.8-0.1,1.1c-0.3,0.8-0.9,1.5-1.8,1.7C94.9,391.8,93.4,390.4,93.4,388.9
		z"/>
	<path class="st2" d="M53.4,333.9c-1.9-1.2-3.1-3.3-3-5.6c0-0.4,0-0.7,0.1-1.1c-0.5-2.1-1-4.1-1.4-6.2c-0.5-2.6-0.8-5.3-1.1-7.9
		c-0.4-3.7-0.6-7.4-0.8-11c-0.3-4-0.5-7.9-0.9-11.9c-0.6-7.4-1.5-14.8-2.7-22.1c-0.5-2.4-1-4.7-1.7-7c-0.4-1.1-0.7-2.3-1.1-3.4
		c0.1,0.2,0.1,0.5,0.2,0.7c-2.4-6.6-4.8-13.1-7.6-19.5c0.1,0.2,0.2,0.4,0.3,0.6c-1.9-3.9-4-7.6-6-11.4c-1-1.8-0.5-4.1,1.2-5.4
		c1.9-1.4,4.4-0.9,5.8,0.9c4.5,5.8,8.5,11.9,11.6,18.6c3,6.6,6.5,13.2,7.9,20.4c1.5,7.3,2.3,14.7,3.2,22.1
		c1.3,10.8,1.1,21.7,3.1,32.4c-0.1-0.3-0.1-0.5-0.2-0.8c0.3,1.7,0.7,3.3,1.2,5c0.4,1.2,0.8,2.4,1.2,3.6c0,0,0,0,0-0.1
		c0.5,1.8,0.9,3.6,0.4,5.4c-0.6,1.8-2,3.5-3.8,4.1c-0.1,0-0.3,0.1-0.4,0.1C56.9,335,55.1,334.9,53.4,333.9z"/>
</g>
<g class="st1">
	<path class="st2" d="M1853.8,0.1c-0.1,0.6-0.3,1.1-0.4,1.7v0c-0.7,2.7-1.5,5.4-2.2,8.2c-2,7.4-4.4,14.6-7,21.8
		c-2.7,7.5-6.2,14.7-9.6,21.9c-2.5,5.3-5.1,10.5-7.8,15.7v0c-0.9,1.8-1.8,3.6-2.7,5.4c-1.7,3.3-3.5,6.6-5.3,9.8
		c-5.6,9.8-12.1,19.2-19,28.1c-5.8,7.4-11.6,14.8-17.7,22c-2.2,2.6-4.4,5.3-6.7,7.8c-0.4,0.4-0.8,0.9-1.2,1.3
		c-7.7,8.6-16,16.5-24.3,24.4c0.2-0.2,0.5-0.5,0.7-0.7c-0.3,0.3-0.6,0.6-0.9,0.9c-0.3,0.3-0.6,0.6-0.9,0.9c0,0-0.1,0-0.1,0.1
		c-0.2,0.2-0.5,0.4-0.7,0.7c-0.6,0.6-1.2,1.2-1.9,1.8c-0.3,0.3-0.7,0.7-1,1c0.2-0.1,0.3-0.3,0.5-0.4c-0.5,0.5-1.1,1-1.6,1.5
		c-0.4,0.3-0.7,0.7-1,1c-0.1,0.1-0.3,0.3-0.4,0.4c-0.5,0.5-1,1-1.5,1.5c-2.5,2.4-4.9,4.7-7.4,7.1c-0.2,0.2-0.3,0.3-0.5,0.5
		c-2.2,2.1-4.4,4.2-6.6,6.2c-0.9,0.8-1.8,1.7-2.7,2.5c-0.5,0.5-1.1,1-1.6,1.5c-4.6,4.3-9.3,8.6-14,12.8
		c-11.5,10.6-23.1,21.3-35.1,31.3c-9.4,7.9-18.7,16-28,24c-9.1,7.8-18.6,15-28.5,21.6c-2.5,1.6-6,1.1-7.9-1.2
		c-2.2-2.5-1.8-6.4,0.7-8.5c5.8-4.9,11.9-9.5,17.8-14.4c5.8-4.8,11.6-9.8,17.1-15c11.9-10.9,24.2-21.5,36.3-32.3
		c7.8-7.1,15.5-14.3,23.1-21.6c3.3-3.1,6.6-6.3,9.9-9.4c0.3-0.3,0.7-0.6,1-1c5.6-5.4,11.1-10.8,16.6-16.3c0.2-0.3,0.5-0.5,0.8-0.8
		l0,0c1.1-1.1,2.2-2.1,3.3-3.2c0,0,0.1-0.1,0.1-0.2c0.2-0.3,0.5-0.5,0.8-0.7c0.4-0.5,0.9-0.9,1.4-1.3c0.3-0.3,0.6-0.6,0.9-0.9
		c2.9-2.8,5.8-5.7,8.7-8.5c3.1-3,6.3-6.1,9.3-9.3c1.8-1.9,3.6-3.8,5.3-5.8c1.4-1.7,2.9-3.3,4.3-5c3.8-4.4,7.5-8.9,11.1-13.4
		c1.1-1.4,2.2-2.8,3.4-4.2c0,0,0,0,0.1-0.1c4.5-5.6,8.8-11.3,13.2-17c3.9-5.2,7.3-10.7,10.7-16.1c0.2-0.3,0.3-0.5,0.5-0.8
		c1.9-3.4,3.8-6.9,5.7-10.3c2.3-4.2,4.6-8.5,6.8-12.8c2.3-4.5,4.6-8.9,6.9-13.4c1.9-3.7,3.6-7.5,5.4-11.3c1.3-3.3,2.8-6.5,4-9.9
		c1.3-3.9,2.7-7.7,4-11.6c0.8-2.8,1.7-5.5,2.5-8.3h9.3c1.3,0,2.6,0,3.9,0.1C1853.3,0.1,1853.6,0.1,1853.8,0.1z"/>
	<path class="st2" d="M1830,108.1c-0.6-8.1-1.4-16.1-2.2-24.2c-0.5-4.8-0.8-9.7-1-14.5v0c-0.1-3.1-0.3-6.2-0.3-9.3
		c-0.1-2.5-2.3-4.5-4.8-4.4c-2.5,0.1-4.5,2.3-4.4,4.8c0.1,2.7,0.3,5.4,0.4,8.1c-1.3-1.2-3.1-1.8-5-1.6c-0.3,0-0.6,0.1-1,0.1
		c-0.4,0-0.8,0.1-1.3,0.1c-0.8,0-1.5,0.1-2.3,0.1c-3.6-0.2-7.2-0.6-10.8-0.7c-3,0-6.1,0-9.1,0c0.2,0,0.3,0,0.5,0c-0.2,0-0.5,0-0.7,0
		h0c-3.3-0.1-6.6-0.2-9.9-0.3c-3.4,0-6.9,0.2-10.3,0.3c-6.5,0.3-13.1,0.4-19.5,1.1c-3.6,0.4-7.2,0.7-10.7,1.4
		c-3.5,0.7-6.9,1.5-10.3,2.6c-3.3,1-6.6,2.1-9.8,3.3c-3.2,1.2-6.6,2.3-9.6,3.9c-3.4,1.8-6.7,3.6-9.8,5.7c-3.3,2.2-6.6,4.5-9.8,6.9
		c-3,2.3-6.1,4.6-9,7c-1.7,1.5-3.5,2.9-5.1,4.5c-1.4,1.4-2.8,2.9-4.2,4.3c-1.4,1.4-2.6,3.1-3.9,4.6c-1.3,1.5-2.4,3-3.6,4.6
		c-2.2,2.9-4.3,5.8-6.4,8.7c-2.1,3-4.4,6-6.3,9.2c-2.3,3.7-4.6,7.4-6.8,11.2c-3.8,6.6-7.5,13.4-11.2,20c-3.6,6.3-7,12.7-10.2,19.2
		c-7,13.9-13.7,27.8-18.4,42.7c-2.5,7.8-4.9,15.5-7.3,23.3c-3.6,11.5-7.7,23-8.1,35.1c-0.2,4.1-0.7,8.8,1.1,12.7
		c0.7,1.5,1.5,2.7,2.8,3.8c1.2,1.1,2.6,1.6,4.2,2c2.2,0.6,4.7,0.3,6.9,0.1c1.1-0.1,2.2-0.3,3.3-0.4c1.7-0.2,3.3-0.6,5-1
		c7.5-1.7,14.7-4.4,22.1-6.6c7-2.1,14.1-4.1,21-6.3c7.5-2.4,15-4.4,22.6-6.4c7.2-1.9,14.1-4.6,21-7.3c7.3-2.8,14.7-5.4,21.9-8.5
		c3.8-1.6,7.4-3.4,11.1-5.2c3.3-1.6,6.4-3.4,9.6-5.1c3.3-1.7,6.5-3.6,9.8-5.5c3.3-1.9,6.6-3.8,9.9-5.7c5.8-3.5,11.6-7,17-11.2
		c4.4-3.5,8.4-7.2,12.5-11c1.4-1.3,2.7-2.8,4-4.2c1.7-1.8,3.4-3.6,5-5.6c6.8-8.3,12.5-17.3,17-27.1c2.6-5.6,4.6-11.4,6.6-17.3
		c1.3-3.8,2.4-7.7,3.5-11.5C1830.1,142.3,1831.3,125.1,1830,108.1z M1820.5,119.6c0-0.1,0-0.2,0-0.3c-0.1,5.4-0.6,10.8-1.4,16.2
		c0,0,0,0.1,0,0.1c0,0,0,0,0,0c0,0,0,0.1,0,0.1c0,0,0,0,0,0v0c-1,6-2.5,12-4.2,17.9c-1.1,3.5-2.1,7-3.4,10.4c-1.9,5-3.8,10.1-6,15
		c-2.1,4.5-4.3,8.8-6.9,13c-2.7,4.3-5.6,8.3-8.7,12.3c-1.8,2.2-3.8,4.3-5.7,6.4c0,0,0,0,0,0c-1.2,1.3-2.5,2.6-3.7,4
		c-1.7,1.6-3.4,3.2-5.1,4.8c-2.7,2.5-5.5,4.8-8.4,7c0,0-0.1,0-0.1,0.1c-5.9,4.3-12.1,8-18.4,11.7c-4.6,2.7-9.2,5.3-13.8,8
		c-3.8,2.1-7.5,4.2-11.4,6.1c-0.1,0-0.1,0.1-0.2,0.1c-4,2-8,3.8-12,5.6c0.1,0,0.3-0.1,0.4-0.2c-0.2,0.1-0.4,0.1-0.5,0.2c0,0,0,0,0,0
		c-0.3,0.1-0.5,0.2-0.8,0.3c-6.6,2.6-13.1,5.1-19.7,7.7c-3.7,1.5-7.5,2.9-11.2,4.3c-3.4,1.2-7,2.1-10.5,3c-3.6,1-7.1,2-10.7,3
		c-3.2,1-6.4,2.1-9.5,3.1c-7,2.2-14,4.2-21,6.5c-6.9,2.3-13.8,4.7-20.8,6.6c-2,0.4-4,0.8-6.1,1.2c-0.8,0.1-1.5,0.1-2.3,0.1
		c0-0.1,0-0.1,0-0.2c-0.1-1.2-0.2-2.4-0.2-3.7c0.1-2.7,0.3-5.3,0.7-7.9c0.5-2.9,1.1-5.8,1.9-8.6c1.7-5.6,3.7-11.2,5.6-16.7
		c1.9-5.4,3.7-10.9,5.5-16.3c1.4-4.3,2.9-8.7,4.4-13c0.8-2.3,1.6-4.6,2.6-6.9c1-2.5,2.1-5,3.1-7.5c0.6-1.4,1.3-2.8,1.9-4.1v0
		c2-4.3,4.1-8.6,6.2-12.9c2.8-5.7,5.7-11.4,8.7-17c2.7-5.1,5.6-10.1,8.4-15c0.4-0.7,0.7-1.3,1.1-2c2.8-5,5.8-9.9,8.7-14.9
		c-0.1,0.1-0.1,0.3-0.2,0.4c0.9-1.5,1.9-3,2.9-4.5c2.1-3.1,4.3-6,6.5-9c3.2-4.3,6.4-8.5,9.7-12.6c0,0,0,0,0,0
		c0.2-0.2,0.3-0.4,0.5-0.6c-0.1,0.2-0.2,0.3-0.4,0.5c1.3-1.5,2.6-3.1,4-4.5c1.3-1.3,2.6-2.6,3.9-3.9c5.7-4.8,11.5-9.4,17.4-13.9
		c2.1-1.5,4.3-3.1,6.5-4.5c2.1-1.4,4.3-2.7,6.5-4c4.4-2.1,8.9-4,13.4-5.8c-0.3,0.1-0.5,0.2-0.7,0.3c2.3-0.9,4.6-1.8,7-2.6
		c2.3-0.8,4.6-1.4,7-2c4.3-0.8,8.6-1.5,12.9-2c8.2-0.7,16.3-1.3,24.6-1.3c5.3,0.2,10.5,0.6,15.8,0.7c0.1,0,0.3,0,0.4,0h0.1
		c2.8,0.1,5.5,0.2,8.2,0.5c0.5,0,1,0.1,1.5,0.1c1.2,0.1,2.5,0.2,3.7,0.2c2.3,0,4.5-0.2,6.8-0.5c1.4-0.2,2.6-1,3.4-2.1
		c0.2,2.9,0.4,5.8,0.6,8.7c0.1,1.4,0.2,2.8,0.4,4.1C1820,99,1820.7,109.3,1820.5,119.6z"/>
	<path class="st2" d="M1733.2,181.1c0.8,6.2,0.4,12.6,0.1,18.8c-0.3,6-0.7,12.1-1.7,18c-1,6-2.1,11.9-3.4,17.8
		c-1.3,5.5-2.9,10.9-5,16.2c-1.5,3.7-3.3,7.4-5.3,10.8c-1.8,3-3.8,5.7-6.5,7.9c-1.3,1-2.9,1.5-4.5,1.1c-1.8-0.4-3.2-1.7-3.8-3.4
		c-1.1-3.3,1.4-6.5,4.6-6.7c0.2-0.2,0.3-0.4,0.5-0.5c0,0,0,0.1-0.1,0.1c0-0.1,0.1-0.1,0.1-0.2c0.1-0.1,0.2-0.2,0.2-0.3
		c0,0-0.1,0.1-0.1,0.1c0.9-1.2,1.6-2.3,2.4-3.6c1.2-2.1,2.2-4.2,3.2-6.4c0,0.1-0.1,0.1-0.1,0.2c1.1-2.7,2.2-5.4,3.1-8.1
		c0,0.1,0,0.2-0.1,0.3c0-0.1,0.1-0.2,0.1-0.3c0-0.1,0.1-0.2,0.1-0.3c0,0.1,0,0.1-0.1,0.2c1.2-4.2,2-8.6,2.8-12.9
		c0.6-4.3,1.1-8.5,1.6-12.8c0.4-3.7,0.5-7.4,0.6-11.1c0,0,0,0.1,0,0.1c0-0.1,0-0.1,0-0.2c0-0.2,0-0.4,0-0.5c0,0.1,0,0.2,0,0.3
		c0-3.9,0.1-7.8,0.1-11.7c0-4.1,0-8.3,0.4-12.5c0.2-2.7,2.5-4.8,5.1-4.9C1730.2,176.6,1732.9,178.4,1733.2,181.1z"/>
	<path class="st2" d="M1780.4,128.7c1,3.1,1.6,6.3,2.4,9.4c0.7,3.1,1.5,6.2,2.2,9.3c1.6,6.5,2.5,13.2,3.1,19.9
		c0.3,3.1,0.5,6.3,0.5,9.5c0,3.9-0.2,7.7-0.3,11.6c-0.4,8.7-2.4,17.4-5.3,25.6c-1.4,4.1-3.1,8-5,11.9c-1.9,3.9-4.3,7.6-7.4,10.7
		c-1.9,1.8-4.8,2.1-6.8,0.3c-2.2-2-2-5.3,0.1-7.2c0.2-0.2,0.4-0.4,0.6-0.5c0.7-0.7,1.3-1.4,2-2.2c0.6-0.9,1.3-1.8,1.9-2.8
		c1.3-2.2,2.5-4.5,3.6-6.9c0,0.1-0.1,0.1-0.1,0.2c1.4-3.3,2.7-6.6,3.8-10c1.1-3.6,1.9-7.3,2.5-11.1c0,0,0,0,0,0
		c0.4-2.9,0.6-5.9,0.8-8.8c0,0.2,0,0.4,0,0.6c0-2.8,0.1-5.7,0-8.5c0-2.9-0.2-5.8-0.4-8.7c0,0.2,0,0.4,0.1,0.7
		c-0.7-6-1.6-12.1-2.7-18.1c-0.5-2.8-1.2-5.7-1.7-8.6c-0.6-3-1-6-1.3-9c0,0.2,0,0.4,0.1,0.6c-0.1-0.8-0.2-1.6-0.3-2.4
		c0-0.2,0-0.4-0.1-0.6c-0.1-1.2-0.3-2.5-0.4-3.7c-0.2-2,1.4-3.9,3.3-4.2c0.2,0,0.4-0.1,0.5-0.1
		C1778.1,125.8,1779.8,126.9,1780.4,128.7z"/>
	<path class="st2" d="M1710.2,181.2c6-0.1,12.1-0.4,18.1-0.2c2.6,0,4.8,2,4.8,4.7c0,2.6-2.1,4.8-4.7,4.8c-8.2,0.4-16.4,0.6-24.6,0.9
		c-8.1,0.3-16.2,0.7-24.3,1c0,0,0,0,0.1,0c-3,0.2-5.9,0.5-8.8,0.9c-3.2,0.5-6.4,1.1-9.6,1.7c0,0,0,0,0,0c-3.6,0.8-7.2,1.7-10.7,2.7
		c-1.9,0.6-3.9,1-5.8,1.7c-0.2,0.1-0.4,0.1-0.6,0.2c0,0,0,0-0.1,0c-0.2,0.1-0.4,0.2-0.6,0.2c-1.5,0.5-3,1-4.5,1.5
		c-2,0.9-4.1,1.7-6.1,2.6c-3.2,1.6-6.3,3.1-9.3,5c-2,1.3-4.8,0.4-6-1.6c-1.2-2.1-0.5-4.8,1.6-6c3.1-1.8,6.4-3.4,9.6-5
		c1.1-0.6,2.4-1,3.5-1.5c1.5-0.6,2.9-1.2,4.4-1.8c-0.2,0.1-0.4,0.1-0.5,0.2c1-0.3,1.9-0.6,2.9-1c0.2-0.1,0.4-0.1,0.6-0.2
		c0.2,0,0.3-0.1,0.5-0.2c0.3-0.1,0.6-0.2,1-0.3c0.1,0,0.2-0.1,0.2-0.1c3.7-1.3,7.5-2.3,11.3-3.4c3.7-1.1,7.5-2,11.3-2.9
		c7.4-1.7,15-2.5,22.6-2.9c5-0.3,10.1-0.6,15.2-0.8C1704.5,181.4,1707.3,181.3,1710.2,181.2z"/>
	<path class="st2" d="M1736.3,128.3c3.5-0.2,6.9-0.2,10.4-0.2c3.3,0,6.7,0.3,10,0.5c-0.2,0-0.3,0-0.5,0c3.7,0.2,7.5,0.2,11.1,0.7
		c2.5,0.4,4.4,2.4,4.5,4.9c0.1,2.4-1.8,4.8-4.3,5c-8.4,0.9-16.9,0.6-25.3,1c-10.5,0.9-21,2.3-31.5,3.4c-10.2,1-20.3,2.6-30.4,4.6
		c0.2,0,0.5-0.1,0.8-0.1c-2.1,0.5-4.2,1-6.3,1.5c-2,0.5-3.9,1.2-5.9,1.7c-3.8,1.3-7.5,2.6-11.1,4.3c-1.9,1-3.6,1.9-5.4,3.1
		c-1.1,0.8-2.2,1.6-3.3,2.5c-2.2,1.8-5.4,2-7.5-0.1c-2.3-2.3-2.1-6.2,0.5-8.1c8-6.1,17.1-10.2,26.4-13.6c3.4-1.2,6.9-2.4,10.4-3.3
		c4.2-1.1,8.4-2,12.6-2.9c7.5-1.5,15.2-2.2,22.8-3c3.7-0.4,7.4-0.7,11-1.1c3.5-0.3,7-0.7,10.4-0.9
		C1736,128.4,1736.1,128.3,1736.3,128.3z"/>
	<path class="st2" d="M1920,90V73.7c-4.9-3.2-9.8-6.3-14.7-9.6c-3.3-2.3-6.5-4.5-9.8-6.6c-3-1.9-6.1-3.7-9.1-5.4
		c-3-1.7-5.7-3.8-8.6-5.5c-1.4-0.8-2.8-1.5-4.2-2.3c-0.1-0.1-0.2-0.1-0.3-0.2c-0.2-1.1-0.7-2.3-1.6-3.1c-1.2-1.2-3-1.8-4.6-1.7
		c-2,0.1-3.9,1.1-4.8,3c-0.3,0.5-0.5,1-0.8,1.5c-1,1.8-2.1,3.6-3,5.5c-1.2,2.3-2.2,4.7-3.2,7.1c-2,5.1-3.8,10.3-5.1,15.6
		c-2.6,9.9-4.3,20.1-4.4,30.4c-0.1,4.4-0.1,8.8-0.2,13.2c0,4.2,0.2,8.3,0.3,12.5c0.1,7.4,0.7,14.8,1.5,22.2c0.2,2.1,0.5,4.3,0.7,6.4
		c0.2,1.5,0.5,3,0.8,4.4c0.7,3.8,1.3,7.6,2.2,11.3c1,3.8,1.7,7.7,2.9,11.5c1.3,4.1,2.6,8.2,3.9,12.3c0.6,1.9,1.4,3.8,2.1,5.6
		c0.9,2.3,1.8,4.6,2.6,6.9c1.4,3.6,3.1,7,4.7,10.5c1.6,3.5,3.5,6.9,5.4,10.3c0.8,1.5,1.6,3.2,2.6,4.6c1,1.5,2,3.1,3,4.7
		c2,3.1,4,6.3,6.2,9.4c1.7,2.3,3.4,4.5,5.1,6.8c0.8,1,1.5,2.1,2.3,3c2.9,3.4,5.7,6.8,8.6,10.2c2.4,2.9,5.1,5.6,7.8,8.3c0,0,0,0,0,0
		c0.3,0.3,0.5,0.5,0.8,0.8c0.1,0.1,0.2,0.2,0.3,0.3c3.5,3.6,7.2,7.2,10.9,10.6v-20.7c-0.2-0.2-0.4-0.5-0.7-0.7
		c-2.4-2.6-4.8-5.2-7.3-7.8c0,0,0,0-0.1-0.1c0,0,0,0,0,0c-1.4-1.6-2.7-3.3-4.1-4.9c-1.5-1.8-3.1-3.5-4.5-5.3
		c-1.7-2.3-3.4-4.6-5.1-6.9c-1-1.4-2.1-2.8-3.1-4.2c-2.4-3.7-4.8-7.4-7.1-11.1c-1.2-1.9-2.1-3.9-3.2-5.9c-1-1.8-1.9-3.6-2.9-5.3
		c-0.9-2.1-1.9-4.1-2.8-6.2c-0.8-1.8-1.7-3.5-2.4-5.3c-0.7-1.7-1.3-3.4-2-5.1c0,0,0,0,0-0.1l0,0c-0.9-2.3-1.8-4.7-2.7-7
		c-0.7-2.1-1.3-4.2-2-6.3c-0.7-2.1-1.4-4.1-2-6.2c-0.2-0.7-0.3-1.4-0.5-2c0,0,0,0,0,0c-0.9-3.6-1.9-7.1-2.8-10.7
		c-0.7-3.4-1.4-6.8-2.1-10.3c-0.6-2.8-0.9-5.7-1.3-8.6c-0.4-2.8-0.8-5.5-1-8.2c-0.3-3.4-0.6-6.7-0.8-10c-0.6-11.9-1.3-23.9-0.8-35.8
		c0.3-5.1,0.9-10.2,1.9-15.3c1-5.1,2.3-10.1,3.9-15.1c0.3-0.7,0.5-1.4,0.8-2.2c0.8-2,1.6-3.9,2.4-5.8c1.7,1,3.4,2.2,5.1,3.3
		c-0.1-0.1-0.2-0.1-0.3-0.2c2,1.4,4,2.9,6,4.2c0.4,0.3,0.9,0.6,1.3,0.9c2.6,1.6,5.2,3.2,7.9,4.8c4.2,2.8,8.2,5.8,12.3,8.6
		c4,2.8,8,5.4,12,8c-0.1-0.1-0.2-0.2-0.4-0.3c0.2,0.2,0.5,0.3,0.7,0.5C1915.1,86.5,1917.5,88.3,1920,90z"/>
	<path class="st2" d="M1920,169.8v30.8c-1.7-3.4-3.5-6.7-5.1-10.1c0,0,0,0,0,0c-1.2-2.3-2.3-4.6-3.4-6.9c-2-4.1-3.9-8.1-5.9-12.2
		c-0.5-1-0.9-2-1.4-3c0,0,0,0,0,0c-1.3-2.8-2.4-5.6-3.7-8.3c-2.9-6.4-5.4-12.9-7.9-19.4c-2.5-6.5-4.9-12.9-7.3-19.4
		c-0.6-1.7-1.2-3.4-1.9-5c-0.5-1.4-1-2.8-1.5-4.2c-2.1-5.7-4-11.4-6-17.2c-2.4-7.1-4.9-14.2-7-21.4c-1.1-3.8-2.3-7.6-3.3-11.4
		c-0.1-0.4-0.2-0.8-0.3-1.3c-0.9-3.8-1.9-7.7-2.9-11.5c-0.4-1.8-0.9-3.7-1.3-5.5c-0.5-2.3-0.9-4.5-1.4-6.7
		c-0.8-3.9-1.6-7.7-2.3-11.6c-1.5-7.2-2.8-14.5-4-21.7c-0.1-0.6-0.2-1.2-0.3-1.9v0c-0.1-0.6-0.2-1.1-0.3-1.7c0.2,0,0.5,0,0.7,0
		c3.4,0.2,6.7,0.7,9.9,1.3c0.1,0.5,0.2,1,0.3,1.5c0.6,3,1.2,6.1,1.8,9.1c2.4,10.3,4.8,20.6,7.4,30.8c0.1,0.5,0.2,0.9,0.4,1.4
		c1.2,4.6,2.5,9.1,3.8,13.7c0.4,1.4,0.8,2.8,1.3,4.3c1,3.1,2,6.2,3,9.3c3.2,9.2,6.6,18.3,9.9,27.5c1.4,3.9,2.9,7.8,4.4,11.8
		c0.6,1.6,1.2,3.2,1.8,4.8c5.6,15,11.4,29.8,17.8,44.4c0.7,1.6,1.4,3.2,2.1,4.8C1918.5,166.5,1919.2,168.1,1920,169.8z"/>
	<path class="st2" d="M1920,166.1v11.6c-1.2-0.7-2.4-1.4-3.5-2.2c-1.7-1-3.3-2.1-4.9-3.2c-2.2-1.4-3.1-4.2-1.8-6.6
		c0.8-1.5,2.4-2.3,3.9-2.4c0.3,0,0.6,0,0.9,0.1h0c0.6,0.1,1.2,0.3,1.7,0.5c0.5,0.3,0.9,0.5,1.4,0.8
		C1918.5,165.3,1919.2,165.7,1920,166.1z"/>
	<path class="st2" d="M1915.2,110.7c1.6,0.6,3.2,1.3,4.8,2v8.7c-0.3-0.1-0.6-0.3-0.9-0.4c-4.7-2-9.6-3.6-14.3-5.7
		c-2.1-0.9-4.2-2-6.3-3.1c-0.9-0.5-1.8-1-2.7-1.4c-1.4-0.8-2.8-1.5-4.2-2.3c-1-0.6-1.9-1.2-2.9-1.8c-1.1-0.7-2.2-1.5-3.2-2.3
		c-0.5-0.3-0.9-0.6-1.3-1v0c-1.3-1-2.6-2-3.9-3.1c-1.4-1.2-1.9-3.1-0.9-4.7c0.6-1.1,1.8-1.8,3.1-1.8c0.6,0,1.3,0.1,1.9,0.5
		c1.4,0.9,2.8,1.9,4.2,2.9c1,0.6,1.9,1.3,2.9,1.9c1.4,0.9,2.9,1.8,4.4,2.6c3.1,1.6,6.2,3.2,9.3,4.8c0,0,0,0,0,0
		C1908.5,108,1911.9,109.4,1915.2,110.7z"/>
	<path class="st2" d="M1889.2,101.3C1889.2,101.3,1889.2,101.3,1889.2,101.3c0,0.8,0,1.5,0,2.2c0,0.8-0.1,1.6-0.2,2.3
		c-0.3,2.2-0.9,4.4-1.4,6.5c-0.5,1.9-1,3.7-1.4,5.6c-0.5,2-1,4-1.4,6c-0.4,2.1-0.8,4.3-1.3,6.5c0,0,0,0,0,0
		c-1.7,10-3.2,19.9-4.6,29.9c-0.6,4.6-1.2,9.2-1.8,13.8c-0.8,6-1.9,12-2.3,18.1c0-0.1,0-0.2,0-0.3c0,0.2,0,0.4,0,0.6c0,0,0,0,0,0
		c0,0,0,0,0,0c-0.1,2.1-0.1,4.2,0.1,6.4c0-0.1,0-0.3,0-0.4c0,0.2,0,0.4,0.1,0.5c0,0,0,0.1,0,0.1c0,0,0-0.1,0-0.1c0.3,3,0.8,6,1.4,9
		c0-0.1,0-0.1,0-0.2c0.6,2.8,1.2,5.5,1.7,8.3c0.5,2.2-1.2,4.3-3.2,4.9c-2.3,0.7-4.8-0.7-5.4-3.1c-0.7-2.5-1.4-5.1-2-7.6
		c-1.1-4-1.7-8.2-1.9-12.3c-0.4-6.4,0.8-12.8,2-19.1c1.4-7.7,2.7-15.4,4.1-23.1c1.5-7.7,3-15.3,4.8-22.9c0.8-3.6,1.7-7.3,2.8-10.9
		c1.2-4,2.5-8,3.8-11.9c0.5-1.6,1-3.2,1.4-4.9c0.1-0.6,0.2-1.2,0.3-1.8c0,0.1,0,0.2,0,0.3c0.1-0.7,0.1-1.5,0-2.2c0-0.3,0-0.6,0-0.9
		c0-0.4,0.1-0.8,0.3-1.1c0.5-0.7,1.2-1.2,2.1-1.2C1888.4,98.1,1889.5,99.7,1889.2,101.3z"/>
	<path class="st2" d="M1915.2,164c1.6,1.6,2.2,4,1.6,6.1c-0.1,0.3-0.2,0.7-0.4,1c0,2.1,0,4.3-0.1,6.4c-0.2,2.7-0.5,5.3-0.8,7.9
		c-0.4,3.6-1.2,7.3-1.8,10.9c-0.7,3.9-1.3,7.8-1.9,11.8c-1.1,7.3-2,14.7-2.5,22.2c-0.1,2.4-0.1,4.8,0,7.2c0.1,1.2,0.2,2.4,0.3,3.6
		c0-0.3,0-0.5,0-0.7c0.8,6.9,1.6,13.9,2.9,20.8c0-0.2-0.1-0.4-0.1-0.6c1,4.2,2.1,8.3,3.2,12.5c0.5,2-0.5,4.1-2.4,4.9
		c-2.1,0.9-4.5-0.2-5.5-2.2c-3.1-6.7-5.5-13.6-6.9-20.8c-1.4-7.1-3.2-14.4-3-21.7c0.2-7.5,1.2-14.9,2.1-22.3
		c1.3-10.8,4-21.4,4.6-32.3c0,0.3,0,0.5,0,0.8c0.1-1.7,0.1-3.4,0-5.1c-0.1-1.3-0.2-2.5-0.3-3.8c0,0,0,0,0,0.1
		c-0.1-1.8-0.1-3.7,0.9-5.3c1-1.6,2.7-2.9,4.6-3.1c0.1,0,0.3,0,0.4,0C1912.1,162.1,1913.8,162.7,1915.2,164z"/>
</g>
<g>
	<g>
		<path class="st2" d="M638.5,179.9c-0.7,2.8-0.8,4.3,0.1,7.2h-18.3l-15.6-56.1L591,179.9c-0.7,2.8-0.8,4.3,0.1,7.2h-18.3l-21.5-77
			c-1.5-5.6-2.6-8.4-4.9-12.8h18.9c0.2,5.4,1,7.6,2.4,12.8l20.5,73l15.5-56l-4.7-17.1c-1.6-5.6-2.7-8.4-4.9-12.8H615
			c-0.8,1.7-1.5,3-1.9,4.3c0.3,2.8,1,4.9,2,8.5l20.4,73l20.5-73.9c1.2-4.3,2.1-6.8,2.6-11.9h3.8c-2.6,5.3-3,7.6-4.3,11.8
			L638.5,179.9z"/>
		<path class="st2" d="M701.2,187c-0.7-4.9-0.9-8.3-1-12.3c-2.8,8.3-9.5,14.6-21.9,14.6c-9.3,0-19-4.2-19-14.9
			c0-13.2,14.4-16.8,25.6-18.7c9.7-1.7,15.3-3.7,15.3-10.8c0-7.5-3.4-11.6-9.9-11.6c-10.3,0-13.4,6.7-16.5,10.5
			c-4,5.3-11.4,4.2-12.7-2.7c7.5-5.2,18.7-10,30.9-10c12.6,0,21.4,4.5,21.5,17.1v16.2c0,8.1,0,13.6,1.7,22.7H701.2z M700.2,164.6
			v-13.1c-2.2,3.3-6.6,4.2-12.7,5.7c-9.1,2.4-13.6,7.1-13.6,15.1c0,8.3,4.4,12.3,10.7,12.3C694.1,184.7,700.2,176,700.2,164.6z"/>
		<path class="st2" d="M788.8,187h-16.7c-1.7-4.4-3-6.7-6.8-12.2c-6.4-8.9-13-13.4-24.5-14.4c-0.1,1.3-0.1,2.8-0.1,4.3
			c0,7.1,0,13,1,22.3h-15.5c1.1-9.7,1.1-15.7,1.1-23.1v-43.5c0-7.4,0-13.5-1.1-23.1h15.5c-1,9.7-1,15.7-1,23.1v30.3
			c3.4-12.5,11.7-19.5,23.9-19.5c8.8,0,15,4,15,12.5c0,10.9-13,15.5-29.6,16.4c16.3,1.9,23.6,6.7,29.4,14.8
			C783.4,180.4,785.6,183.2,788.8,187z M740.9,158.9c16,0,26-5,26-15.3c0-5.4-2.9-8.9-8.1-8.9C749.5,134.7,742.4,143.2,740.9,158.9z
			"/>
		<path class="st2" d="M852,166.5c-4,13.9-12.9,22.8-28.5,22.8c-17.5,0-31.9-10.5-31.9-29.1c0-18.4,14.7-29.1,30.7-29.1
			c16.9,0,26.7,10.8,26.8,22.8h-42.8c-0.1,1.7-0.2,3.4-0.2,5.3c0,14.3,7.2,26.5,21.4,26.5c10.3,0,18.5-6.5,22.4-19.2H852z
			 M806.7,151.8h28.4c0-10.8-3.9-18.5-12.9-18.5C814,133.3,808.2,139.7,806.7,151.8z"/>
		<path class="st2" d="M912.6,97.3c-0.8,9-1,13.8-1,23.1v28.5c0,26.4,6.5,37,24.2,37c16.9,0,25.6-9.5,25.6-37v-28.5
			c0-9.3-0.2-14.1-1-23.1h4.2c-0.8,9-1,13.8-1,23.1v28.5c0,29.4-9.8,40.4-30.3,40.4c-22.1,0-37-8.3-37-40.4v-28.5
			c0-9.3-0.2-14.1-1-23.1H912.6z"/>
		<path class="st2" d="M1039.6,160.2c0,19.7-13.6,29.1-26.1,29.1c-9.6,0-17.3-4.7-22.9-11.4v13.5c0,7.4,0,13,1,22.7h-15.5
			c1.1-9.6,1.1-15.3,1.1-22.7v-35.2c0-7.4,0-12.9-1.1-22.7h15.3c-0.4,4.5-0.7,9.2-0.8,13.5c3-9.1,10-15.7,22-15.7
			C1026.6,131.2,1039.6,140.5,1039.6,160.2z M1024.9,160.2c0-14-4.7-25.5-16.8-25.5c-10.7,0-17.5,9.3-17.5,23.8v16.4
			c4.6,6.1,11.6,11.2,18.7,11.2C1019,186.1,1024.9,176.9,1024.9,160.2z"/>
		<path class="st2" d="M1142.4,97.3l-5.8,7.7c-9.3-4.8-19.4-5.6-25.1-5.6h-9.9v39.2h6.6c5.9,0,12,0,22.4-1.1v4.4
			c-10.4-1.1-16.5-1.1-22.4-1.1h-6.6v44.2h11.1c11.4,0,18.6-0.7,32.4-5.4l-3.7,7.5h-56.3c0.9-9,1.2-13.8,1.2-23.1v-43.5
			c0-9.3-0.3-14.1-1.2-23.1H1142.4z"/>
		<path class="st2" d="M1195.1,187c-0.7-4.9-0.9-8.3-1-12.3c-2.8,8.3-9.5,14.6-21.9,14.6c-9.3,0-19-4.2-19-14.9
			c0-13.2,14.4-16.8,25.6-18.7c9.6-1.7,15.3-3.7,15.3-10.8c0-7.5-3.4-11.6-9.9-11.6c-10.3,0-13.4,6.7-16.5,10.5
			c-4,5.3-11.4,4.2-12.7-2.7c7.5-5.2,18.7-10,30.9-10c12.6,0,21.4,4.5,21.5,17.1v16.2c0,8.1,0,13.6,1.7,22.7H1195.1z M1194.1,164.6
			v-13.1c-2.2,3.3-6.6,4.2-12.7,5.7c-9.1,2.4-13.6,7.1-13.6,15.1c0,8.3,4.4,12.3,10.7,12.3C1188.1,184.7,1194.1,176,1194.1,164.6z"
			/>
		<path class="st2" d="M1255.8,141.6c-5.8-1.9-9.9-1.3-20.6,10.2v3.7v9.5c0,7.4,0,12.9,1,22h-15.5c1.1-9.1,1.1-14.6,1.1-22v-9.5
			c0-7.4,0-13-1.1-22.1h15.5c-0.7,6.1-0.9,10.7-1,15.3c8.5-9.9,15.5-17.8,29.8-15.3C1266.4,139.7,1262.7,143.9,1255.8,141.6z"/>
		<path class="st2" d="M1289.6,97.3c-1,9.7-1,15.7-1,23.1v43.5c0,7.4,0,13.5,1,23.1h-15.5c1.1-9.7,1.1-15.7,1.1-23.1v-43.5
			c0-7.4,0-13.5-1.1-23.1H1289.6z"/>
		<path class="st2" d="M1355.8,133.4c-1.7,3.3-2.2,4.8-3.6,8.8l-15.7,44.9c-4.8,13.8-10.3,20-20.4,20c-5.4,0-11.4-1.8-15.6-5.5
			c-1.2-6.4,7-9.1,9.9-2.9c2,4.2,3.9,6.3,7.9,6.3c5.7,0,11.7-5.5,15.8-17.4l0.1-0.4h-13l-17.3-44.9c-1.2-3.3-2.1-5.2-4.4-8.8h16.7
			c0.6,3.7,1.2,5.4,2.5,8.6l16.4,42.4L1350,142c1.3-3.8,1.6-5.4,2.2-8.6H1355.8z"/>
		<path class="st2" d="M1358.7,181.9l7.4-7.5l7.5,7.5l-14.1,24.3l-0.8-0.8l7.4-16.2L1358.7,181.9z"/>
	</g>
	<g>
		<path class="st2" d="M467.3,270l-5.8,7.7c-9.3-4.8-19.4-5.6-25.1-5.6h-9.9v39.2h6.6c5.9,0,12,0,22.4-1.1v4.4
			c-10.4-1.1-16.5-1.1-22.4-1.1h-6.6v44.2h11.1c11.4,0,18.6-0.7,32.4-5.4l-3.7,7.5H410c0.9-9,1.2-13.8,1.2-23.1v-43.5
			c0-9.3-0.3-14.1-1.2-23.1H467.3z"/>
		<path class="st2" d="M520.1,359.8c-0.7-4.9-0.9-8.3-1-12.3c-2.8,8.3-9.5,14.6-21.9,14.6c-9.3,0-19-4.2-19-14.9
			c0-13.2,14.4-16.8,25.6-18.7c9.7-1.7,15.3-3.7,15.3-10.8c0-7.5-3.4-11.6-9.9-11.6c-10.3,0-13.4,6.7-16.5,10.5
			c-4,5.3-11.4,4.2-12.7-2.7c7.5-5.2,18.7-10,30.9-10c12.6,0,21.4,4.5,21.5,17.1v16.2c0,8.1,0,13.6,1.7,22.7H520.1z M519.1,337.3
			v-13.1c-2.2,3.3-6.6,4.2-12.7,5.7c-9.1,2.4-13.6,7.1-13.6,15.1c0,8.3,4.4,12.3,10.7,12.3C513,357.4,519.1,348.8,519.1,337.3z"/>
		<path class="st2" d="M583.1,336.9c-2.8,20-8.4,25.7-17.8,25.7c-10.3,0-14.8-5.7-14.8-19.1v-35.2h-12.1v-2.1h1.6
			c15.3,0,14.7-11.1,14.7-23.6h11.4c0,9.4-2,19.3-12.9,23.6H580v2.1h-16.2v37.1c0,10.3,2,13.6,6.2,13.6c5,0,8.9-5.8,11.2-22.1H583.1
			z"/>
		<path class="st2" d="M686.9,270l-5.8,7.7c-9.3-4.8-19.4-5.6-25.1-5.6h-12.1v43.3h6.3c5.9,0,12,0,22.4-1.1v4.4
			c-10.4-1.1-16.5-1.1-22.4-1.1h-6.3v19.1c0,9.3,0.2,14.1,1.2,23.1h-17.7c0.9-9,1.2-13.8,1.2-23.1v-43.5c0-9.3-0.3-14.1-1.2-23.1
			H686.9z"/>
		<path class="st2" d="M721.2,314.3c-5.8-1.9-9.9-1.3-20.6,10.2v3.7v9.5c0,7.4,0,12.9,1,22H686c1.1-9.1,1.1-14.6,1.1-22v-9.5
			c0-7.4,0-13-1.1-22.1h15.5c-0.7,6.1-0.9,10.7-1,15.3c8.5-9.9,15.5-17.8,29.8-15.3C731.7,312.4,728,316.7,721.2,314.3z"/>
		<path class="st2" d="M794.8,339.2c-4,13.9-12.9,22.8-28.5,22.8c-17.5,0-31.9-10.5-31.9-29.1c0-18.4,14.7-29.1,30.7-29.1
			c16.9,0,26.7,10.8,26.8,22.8h-42.8c-0.1,1.7-0.2,3.4-0.2,5.3c0,14.3,7.2,26.5,21.4,26.5c10.3,0,18.5-6.5,22.4-19.2H794.8z
			 M749.4,324.5h28.4c0-10.8-3.9-18.5-12.9-18.5C756.7,306,751,312.4,749.4,324.5z"/>
		<path class="st2" d="M813.8,347c0.4,6.5,4.4,12.9,14.4,12.9c7.7,0,11.2-4.6,11.2-10.3c0-6.1-4-8.5-16.6-14.8
			c-10.3-5.2-18.6-9.1-18.6-17.8c0-9.5,10.8-13,20-13c11,0,19.1,5.2,23.6,13.8c-3.1,4.6-9.5,3.8-11.2-2.1c-1.6-5.7-4.4-9.4-12.1-9.4
			c-5.9,0-10,2.4-10,7.1c0,5.3,4.9,8.2,15.5,13.1c11.4,5.4,20.2,9.2,20.2,19.6c0,9.7-8.6,16-22.4,16c-13.5,0-23.6-5.9-26.4-17.5
			C804.3,338.7,812.6,339.8,813.8,347z"/>
		<path class="st2" d="M900.5,337.1v-15.8c0-9-2.8-13.8-9.2-13.8c-7.9,0-13.7,6.8-17.5,14.5v14.7c0,7.4,0,13.5,1,23.1h-15.5
			c1.1-9.7,1.1-15.7,1.1-23.1v-43.5c0-7.4,0-13.5-1.1-23.1h15.5c-1,9.7-1,15.7-1,23.1v25.4c4-7.4,11.1-14.6,22.4-14.6
			c11.2,0,17.6,6.2,17.6,21.8v11.4c0,7.4,0,11.8,1,22.7h-15.5C900.5,348.9,900.5,344.5,900.5,337.1z"/>
		<path class="st2" d="M1052.5,343.2c-1.8,15.3-12.1,18.9-20,18.9c-5.4,0-10.5-1.8-15.6-5.3c-5.6,3.4-12.3,5.3-20.2,5.3
			c-19.4,0-36.9-7.9-36.9-25.9c0-13.1,8.5-19.7,18.9-25.2c-4.8-8.4-8.3-16.8-8.3-23.7c0-9.9,5.9-19.4,22.6-19.4
			c13.9,0,21.2,7.4,21.2,16.7c0,11.9-9,17.7-21,24c-1.3,0.7-2.6,1.3-3.7,2c4.5,7.7,10.1,15.6,15.1,22.4c4.9,6.6,9.3,12.7,13.5,17.3
			c7.5-9.9,7.9-25.6-0.3-38.9l11.6-7.3c8.2,19.5,4.5,38.9-8.1,49.6c4.2,3.9,8,6.3,11.9,6.3c6.7,0,10.5-7.2,8.1-21.9L1052.5,343.2z
			 M1013.8,354.6c-5.5-4.4-11.1-10.4-17.2-17.8c-4.8-6.1-10.2-13.4-14.9-20.9c-5.7,4.9-9.2,11.2-9.2,19.9c0,14.1,9.6,24.1,24.8,24.1
			C1004,359.9,1009.7,357.9,1013.8,354.6z M987.2,306.6c0.7-0.2,1.2-0.6,1.9-0.9c12.8-6.7,15.3-14.7,15.3-22.4
			c0-7.2-3.1-13.4-11.4-13.4c-8.3,0-12.9,6.2-12.9,15C980,291.2,982.9,298.8,987.2,306.6z"/>
		<path class="st2" d="M1169.7,336.6c0,9.3,0.2,14.1,1,23.1h-17.4c0.8-9,1-13.8,1-23.1v-20.8h-38.5v20.8c0,9.3,0.2,14.1,1,23.1
			h-17.4c0.8-9,1-13.8,1-23.1v-43.5c0-9.3-0.2-14.1-1-23.1h17.4c-0.8,9-1,13.8-1,23.1v20.8h38.5v-20.8c0-9.3-0.2-14.1-1-23.1h17.4
			c-0.8,9-1,13.8-1,23.1V336.6z"/>
		<path class="st2" d="M1242,339.2c-4,13.9-12.9,22.8-28.5,22.8c-17.5,0-31.9-10.5-31.9-29.1c0-18.4,14.7-29.1,30.7-29.1
			c16.9,0,26.7,10.8,26.8,22.8h-42.8c-0.1,1.7-0.2,3.4-0.2,5.3c0,14.3,7.2,26.5,21.4,26.5c10.3,0,18.5-6.5,22.4-19.2H1242z
			 M1196.7,324.5h28.4c0-10.8-3.9-18.5-12.9-18.5C1204,306,1198.3,312.4,1196.7,324.5z"/>
		<path class="st2" d="M1291.6,359.8c-0.7-4.9-0.9-8.3-1-12.3c-2.8,8.3-9.5,14.6-21.9,14.6c-9.3,0-19-4.2-19-14.9
			c0-13.2,14.4-16.8,25.6-18.7c9.6-1.7,15.3-3.7,15.3-10.8c0-7.5-3.4-11.6-9.9-11.6c-10.3,0-13.4,6.7-16.5,10.5
			c-4,5.3-11.4,4.2-12.7-2.7c7.5-5.2,18.7-10,30.9-10c12.6,0,21.4,4.5,21.5,17.1v16.2c0,8.1,0,13.6,1.7,22.7H1291.6z M1290.6,337.3
			v-13.1c-2.2,3.3-6.6,4.2-12.7,5.7c-9.1,2.4-13.6,7.1-13.6,15.1c0,8.3,4.4,12.3,10.7,12.3C1284.6,357.4,1290.6,348.8,1290.6,337.3z
			"/>
		<path class="st2" d="M1332.1,270c-1,9.7-1,15.7-1,23.1v43.5c0,7.4,0,13.5,1,23.1h-15.5c1.1-9.7,1.1-15.7,1.1-23.1v-43.5
			c0-7.4,0-13.5-1.1-23.1H1332.1z"/>
		<path class="st2" d="M1383.4,336.9c-2.8,20-8.4,25.7-17.8,25.7c-10.3,0-14.8-5.7-14.8-19.1v-35.2h-12.1v-2.1h1.6
			c15.3,0,14.7-11.1,14.7-23.6h11.4c0,9.4-2,19.3-12.9,23.6h26.8v2.1h-16.2v37.1c0,10.3,2,13.6,6.2,13.6c5,0,8.9-5.8,11.2-22.1
			H1383.4z"/>
		<path class="st2" d="M1433.8,337.1v-15.8c0-9-2.8-13.8-9.2-13.8c-7.9,0-13.7,6.8-17.5,14.5v14.7c0,7.4,0,13.5,1,23.1h-15.5
			c1.1-9.7,1.1-15.7,1.1-23.1v-43.5c0-7.4,0-13.5-1.1-23.1h15.5c-1,9.7-1,15.7-1,23.1v25.4c4-7.4,11.1-14.6,22.4-14.6
			c11.2,0,17.6,6.2,17.6,21.8v11.4c0,7.4,0,11.8,1,22.7h-15.5C1433.8,348.9,1433.8,344.5,1433.8,337.1z"/>
		<path class="st2" d="M1510,306.1c-1.7,3.3-2.2,4.8-3.6,8.8l-15.7,44.9c-4.8,13.8-10.3,20-20.4,20c-5.4,0-11.4-1.8-15.6-5.5
			c-1.2-6.4,7-9.1,9.9-2.9c2,4.2,3.9,6.3,7.9,6.3c5.7,0,11.7-5.5,15.8-17.4l0.1-0.4h-13l-17.3-44.9c-1.2-3.3-2.1-5.2-4.4-8.8h16.7
			c0.6,3.7,1.2,5.4,2.5,8.6l16.4,42.4l14.9-42.4c1.3-3.8,1.6-5.4,2.2-8.6H1510z"/>
	</g>
</g>
</svg>
