<?xml version="1.0" encoding="utf-8"?>
<!-- Generator: Adobe Illustrator 23.0.2, SVG Export Plug-In . SVG Version: 6.00 Build 0)  -->
<svg version="1.1" id="Layer_1" xmlns="http://www.w3.org/2000/svg" xmlns:xlink="http://www.w3.org/1999/xlink" x="0px" y="0px"
	 viewBox="0 0 1080 409.4" style="enable-background:new 0 0 1080 409.4;" xml:space="preserve">
<style type="text/css">
	.st0{fill:#242424;}
</style>
<g>
	<path class="st0" d="M81.5,137c5.2,26.9,10.4,53.8,15.6,80.7c2.4,12.6-7.1,17.3-16.2,19.2c0.3,1.7,0.5,2.5,0.8,4.2
		c26.2-5.3,52.4-10.1,78.8-14.5c-0.3-1.7-0.4-2.5-0.7-4.2c-8.1,1.4-18.3-0.5-20.3-11.7c-4.5-25.2-9-50.3-13.5-75.5
		c23.5-17,61.8-20,65.3,18.3c2.8,18.7,4.2,28,7,46.7c1.9,12.7-6,17-15.7,18.5c0.3,1.7,0.4,2.5,0.7,4.2c27-4.3,54.1-8.1,81.2-11.4
		c-0.2-1.7-0.3-2.5-0.5-4.2c-9.2,1.1-21.7-0.9-23.6-13.8c-3.4-24-7.7-60.3-7.7-60.3c-6.8-58.2-82-36.4-108.5-8.3
		c-1.2-7.4-1.8-11.1-3-18.5c-21.5,3.7-43.1,7.8-64.5,12.1c0.3,1.7,0.5,2.5,0.8,4.2C66,120.9,78.9,123.5,81.5,137z"/>
	<path class="st0" d="M381.7,189.2c31.2-16.7,61.5-60.6,39-95.3C397.5,58.2,340.9,63.1,308.8,82c-29.3,17.3-62.3,63.3-37.5,97.5
		C295.3,212.6,350.9,205.6,381.7,189.2z M310.9,93c22.5-13.3,51.6,1.5,67.8,19.9c15.7,17.9,23.4,51.9,1.1,65.2
		c-20.9,12.5-51.5-3.6-67.5-21C296.1,139.6,286.8,107.3,310.9,93z"/>
	<path class="st0" d="M539.4,165.3c0.6,14.9-77-6.7-89.6-23.7c-11,16.7-7.4,38.5,14.4,47.2c29.8,11.8,106.3,5,105-37.1
		c-1.5-45.3-92.1-42.6-93.3-65.8c-1.1-21.7,74.5,9,85.8,24.2c10.3-14.7,14-38.8-10.2-48c-29.3-11.1-109.8-9.5-108.2,34.1
		C445,145,538.5,145,539.4,165.3z"/>
	<path class="st0" d="M606.7,146.1c-0.9,27.4,11.1,48.3,40.1,48.6c22.3,0.2,55.2-22.4,30.5-44.6c-12.2,12.3-18.2,18.4-30,30.9
		c1.2-34.8,2.4-69.6,3.6-104.4c9.5,0.3,14.3,0.5,23.9,0.9c0.2-4.1,0.3-6.1,0.5-10.2c-9.6-0.4-14.4-0.6-24-0.9
		c0.8-21.6,1.5-43.2,2.3-64.8c-23.6-0.9-47.3-1.4-70.9-1.5c0,1.7,0,2.6,0,4.3c13.8,0.1,25,6.7,26.4,20.5
		c-0.3,16.1-0.4,24.2-0.7,40.4c-10.4-0.2-15.7-0.3-26.1-0.3c0,4.1,0,6.1-0.1,10.2c10.4,0.1,15.6,0.2,26,0.3
		C607.6,99,607.2,122.6,606.7,146.1z"/>
	<path class="st0" d="M779.7,198.5c-7.7-0.7-20.7-5.3-22.7-15.5c1.9-24.3,2.9-36.5,4.9-60.8c17.6-18.2,54.6-17.3,71.6,2
		c19.4-17.3,5.9-43.4-17.5-46c-19.2-2.1-42.9,11.4-52.8,27.9c1-11.9,1.4-17.9,2.4-29.8c-22.6-1.8-45.3-3.3-67.9-4.5
		c-0.1,1.8-0.1,2.7-0.2,4.5c9.7,0.5,20.6,6.9,22.3,17.2c-1.8,28.6-3.6,57.2-5.4,85.8c-3.4,8.8-13.4,13.5-22.4,13
		c-0.1,1.8-0.1,2.7-0.2,4.5c29.2,1.6,58.4,3.7,87.6,6.3C779.5,201.2,779.6,200.3,779.7,198.5z"/>
	<path class="st0" d="M904.6,217.5c14.9,1.7,29.7-2.6,36.6-11.8c-1,6.5-1.5,9.7-2.5,16.2c22.6,3.5,45.1,7.4,67.6,11.6
		c0.3-1.9,0.5-2.8,0.9-4.7c-17.8-4.5-24.5-12.6-20.4-36c5.1-29.1,10.2-58.2,15.2-87.3c-17.6-3.1-26.4-4.5-43.9-7.3
		c-0.5,3.3-0.8,4.9-1.3,8.2c-9.4-6.3-19.8-11.4-31-13.1c-35-5.1-71.6,20.9-74.5,57.1C848.7,182.4,871.9,213.8,904.6,217.5z
		 M892.3,156.4c3-26.9,32.6-58.9,63-40.3c-3.9,24.9-7.8,49.7-11.7,74.6C917.4,217.7,889.6,180.9,892.3,156.4z"/>
	<path class="st0" d="M50.3,363.7c-18.7-13.8-32-41.1-15.4-61.4c25.8-26.6,73.9-6.2,75.8,29.6c23.3-6.1,35.1-34.9,18.6-52.9
		c-27.1-29.7-87.7-3.6-107.2,21.8c-18.5,24.1-34.3,60.4-8.8,87.3c39.4,41.5,98.6,3.3,129-30.6c-1.4-2.1-2.1-3.1-3.4-5.2
		C114.7,375.6,78.7,384.8,50.3,363.7z"/>
	<path class="st0" d="M312.2,333.6c-3.4-31.2-6.8-62.3-10.2-93.5c-21.2,2.3-42.3,4.9-63.4,7.8c0.2,1.8,0.4,2.7,0.6,4.5
		c11.8-1.6,23.2,2.7,25.4,19.7c2.9,22.8,5.8,45.6,8.6,68.3c-23.3,24.4-55.7,5.5-60.7-23c-3.2-21.4-6.5-42.9-9.7-64.3
		c-21.8,3.3-43.5,6.9-65.2,10.8c0.3,1.8,0.5,2.7,0.8,4.4c15.7-2.8,25.9,4.9,29.1,25.3c3.2,18.8,4.8,28.2,8,47.1
		c8.3,52.7,73.5,37.1,99,10.1c0.9,7.3,1.4,11,2.3,18.4c24.5-3.1,36.8-4.5,61.4-6.9c-0.2-1.7-0.3-2.5-0.4-4.2
		C323.7,359.3,315.5,353,312.2,333.6z"/>
	<path class="st0" d="M477.7,241.1c-22.4-33.3-85.9-16.4-108.8,5.8c-21.7,21.1-42.5,54.8-21.3,85.1c32.7,46.8,96.6,17.7,131.5-11.3
		c-1.1-2.2-1.6-3.4-2.6-5.6c-27.1,19.4-64,23.2-88.9-1.8c-16.4-16.4-25.6-45.3-6.3-63c29.4-22.6,73.6,4.9,70.4,40.4
		C475.6,288,491.3,261.2,477.7,241.1z"/>
	<path class="st0" d="M639.2,240.8c-20.1-34.8-84.6-22.2-108.9-1.5c-23.1,19.6-46,51.8-27,83.4c29.4,49,95.1,24.2,131.8-2.4
		c-0.9-2.3-1.3-3.5-2.2-5.8c-28.4,17.5-65.4,18.8-88.5-7.8c-15.2-17.5-22.4-46.9-2-63.2c30.9-20.5,73.1,9.9,67.5,45.1
		C634,287.5,651.4,261.9,639.2,240.8z"/>
	<path class="st0" d="M710.2,333.7c2.2-34.2,4.4-68.4,6.6-102.6c-22.1-1.5-44.2-2.6-66.3-3.4c-0.1,1.7-0.1,2.6-0.2,4.3
		c8.6,0.3,24.7,5.6,24,19.8c-1.2,26.6-2.4,53.1-3.6,79.7c-0.6,11.9-16.9,17.3-24.8,17c-0.1,1.7-0.1,2.6-0.2,4.3
		c28.9,1.1,57.7,2.7,86.5,4.8c0.1-1.7,0.2-2.6,0.3-4.3C723.4,352.7,709.4,346.7,710.2,333.7z"/>
	<path class="st0" d="M899,355.2c3.3-24,9.2-60.1,9.2-60.1c9.4-55.8-62.5-58.1-95.4-37c0.9-7.5,1.3-11.2,2.2-18.6
		c-24.4-2.6-36.7-3.7-61.1-5.7c-0.1,1.7-0.2,2.6-0.3,4.3c8,0.6,18.9,6.6,17.7,20.3c-2.4,27.3-4.8,54.6-7.2,81.9
		c-1.1,12.8-11,14.8-19.5,14.1c-0.1,1.7-0.2,2.6-0.3,4.3c24.8,2.1,49.6,4.5,74.4,7.2c0.2-1.7,0.3-2.5,0.5-4.2
		c-7.6-0.9-16.3-5.4-15.1-16.7c2.6-25.4,5.2-50.9,7.8-76.3c25.1-9.8,63.5-0.8,53.9,35.1c-2.5,18.7-3.7,28.1-6.1,46.9
		c-1.7,12.7-9.9,14.8-19,13.6c-0.2,1.7-0.3,2.5-0.5,4.2c25.4,3.3,50.7,6.8,76,10.7c0.3-1.7,0.4-2.5,0.7-4.2
		C908,373.4,897.2,368,899,355.2z"/>
	<path class="st0" d="M1060.4,368.3c6.4-28.8,12.7-57.7,19.1-86.5c-16.4-3.6-24.6-5.3-41-8.7c-0.7,3.3-1,4.9-1.7,8.1
		c-8.5-6.6-18.3-11.9-28.5-14c-35-7.5-67.9,23-73,54.5c-4.7,28.9,14.7,63.5,46.5,68.6c13.9,2.2,28-1.6,35-10.6
		c-1.3,6.4-2,9.6-3.3,16.1c21,4.2,41.9,8.8,62.8,13.6c0.4-1.9,0.6-2.8,1.1-4.6C1061.1,399.8,1055.3,391.5,1060.4,368.3z
		 M1019.9,364.8c-27.9,23.3-50.4-10.2-46.3-35.9c4.5-28,31.3-55,61.3-38.1C1029.9,315.5,1024.9,340.2,1019.9,364.8z"/>
</g>
</svg>
